<?xml version="1.0" standalone="no"?>
<!DOCTYPE svg PUBLIC "-//W3C//DTD SVG 20010904//EN"
 "http://www.w3.org/TR/2001/REC-SVG-20010904/DTD/svg10.dtd">
<svg version="1.0" xmlns="http://www.w3.org/2000/svg"
 width="128.000000pt" height="128.000000pt" viewBox="0 0 128.000000 128.000000"
 preserveAspectRatio="xMidYMid meet">
<metadata>
Created by potrace 1.14, written by Peter Selinger 2001-2017
</metadata>
<g transform="translate(0.000000,128.000000) scale(0.100000,-0.100000)"
fill="#000000" stroke="none">
<path d="M630 965 l0 -315 -315 0 c-203 0 -315 -4 -315 -10 0 -6 112 -10 315
-10 l315 0 0 -315 c0 -203 4 -315 10 -315 6 0 10 112 10 315 l0 315 315 0
c203 0 315 4 315 10 0 6 -112 10 -315 10 l-315 0 0 315 c0 203 -4 315 -10 315
-6 0 -10 -112 -10 -315z"/>
<path d="M821 473 c-33 -27 -39 -90 -11 -125 47 -60 127 -15 117 66 -6 44 -21
62 -58 71 -17 4 -33 0 -48 -12z m58 -27 c7 -8 11 -32 9 -53 -3 -33 -6 -38 -28
-38 -22 0 -25 5 -28 38 -3 36 10 67 28 67 4 0 13 -6 19 -14z"/>
<path d="M946 324 c-48 -92 -84 -169 -82 -172 15 -14 39 21 114 165 45 88 82
163 82 167 0 3 -6 6 -14 6 -8 0 -50 -70 -100 -166z"/>
<path d="M1018 303 c-57 -66 1 -181 72 -143 44 23 55 105 20 140 -25 25 -72
26 -92 3z m70 -64 c3 -50 -16 -71 -44 -48 -30 24 -14 102 20 97 17 -2 22 -11
24 -49z"/>
</g>
</svg>
