<?xml version="1.0" standalone="no"?>
<!DOCTYPE svg PUBLIC "-//W3C//DTD SVG 20010904//EN"
 "http://www.w3.org/TR/2001/REC-SVG-20010904/DTD/svg10.dtd">
<svg version="1.0" xmlns="http://www.w3.org/2000/svg"
 width="512.000000pt" height="512.000000pt" viewBox="0 0 512.000000 512.000000"
 preserveAspectRatio="xMidYMid meet">
<metadata>
Created by potrace 1.14, written by Peter Selinger 2001-2017
</metadata>
<g transform="translate(0.000000,512.000000) scale(0.100000,-0.100000)"
fill="#000000" stroke="none">
<path d="M514 5101 c-3 -3 -22 -6 -42 -7 -20 -1 -37 -2 -37 -4 0 -2 -36 -11
-52 -12 -9 -1 -10 -5 -2 -15 8 -9 8 -13 1 -13 -6 0 -14 5 -17 10 -5 8 -11 7
-21 -1 -8 -6 -14 -8 -14 -4 0 5 -8 1 -18 -8 -10 -10 -22 -14 -27 -10 -4 5 -5
2 -1 -4 4 -7 2 -14 -3 -14 -6 -1 -17 -2 -23 -3 -7 -1 -12 -8 -10 -15 2 -8 -3
-11 -12 -8 -11 4 -13 1 -9 -10 4 -9 2 -14 -3 -10 -13 8 -41 -10 -31 -20 5 -4
12 -1 17 7 9 13 10 13 10 0 1 -12 3 -11 11 3 6 9 15 14 21 11 7 -4 8 -2 4 5
-4 6 -4 11 1 10 4 -1 15 -1 23 0 13 1 13 3 0 12 -13 9 -12 10 3 5 10 -3 16 -2
13 2 -5 9 2 11 48 14 17 1 22 7 19 18 -4 12 -3 12 5 1 7 -9 12 -10 16 -2 9 14
29 14 24 0 -2 -6 -7 -10 -11 -10 -3 0 -18 -6 -33 -14 -15 -7 -33 -11 -42 -8
-11 5 -13 3 -7 -7 5 -8 4 -11 -3 -6 -6 3 -16 -3 -22 -14 -6 -11 -15 -18 -21
-15 -5 4 -9 0 -9 -7 0 -9 -3 -9 -10 2 -7 10 -10 11 -11 3 -1 -7 -2 -17 -3 -23
0 -5 -3 -9 -6 -8 -9 3 -76 -67 -72 -74 2 -5 -2 -8 -8 -8 -6 0 -8 -4 -5 -10 3
-5 2 -10 -2 -10 -5 0 -18 -7 -29 -15 -19 -15 -19 -15 1 -8 19 7 19 6 2 -11 -9
-10 -14 -22 -11 -28 5 -7 2 -8 -6 -3 -10 6 -12 4 -7 -9 4 -10 1 -19 -8 -22 -8
-4 -15 -10 -15 -16 0 -5 6 -6 13 -2 9 6 9 5 0 -8 -7 -8 -9 -19 -5 -23 4 -5 1
-5 -6 -1 -9 6 -11 1 -8 -17 2 -14 1 -28 -2 -32 -4 -4 -7 -941 -7 -2082 0
-1597 -3 -2077 -12 -2080 -7 -3 -11 4 -10 16 1 12 6 21 11 21 5 0 1 7 -10 15
-16 13 -16 14 -1 9 9 -3 17 -1 17 5 0 6 -3 10 -8 10 -20 -3 -32 2 -26 12 4 7
9 8 13 1 3 -6 6 885 6 1979 0 1287 3 1989 10 1989 5 0 -1 7 -13 16 -23 16 -23
16 -4 30 20 14 23 37 7 51 -4 5 -5 1 0 -7 5 -8 4 -12 0 -7 -13 11 -15 38 -3
31 7 -5 8 -2 3 6 -5 8 -4 11 2 7 5 -3 10 -1 11 6 0 7 3 23 7 37 4 14 7 30 7
37 1 6 8 9 17 6 10 -3 12 -1 6 4 -15 12 -17 33 -3 31 7 -2 12 3 10 11 -1 7 2
19 8 25 5 7 7 16 3 20 -4 4 0 4 10 0 16 -6 22 4 18 29 0 4 3 7 9 7 6 0 9 4 8
9 -2 5 12 21 30 34 26 19 29 26 17 31 -21 8 -75 -41 -68 -62 4 -9 2 -13 -4 -9
-6 4 -16 0 -23 -8 -7 -8 -9 -15 -5 -15 4 0 -5 -14 -19 -31 -22 -26 -25 -34
-14 -47 11 -13 10 -15 -5 -9 -11 4 -16 3 -12 -4 4 -5 1 -16 -5 -24 -6 -8 -9
-19 -6 -24 4 -5 1 -13 -5 -16 -5 -4 -8 -13 -5 -21 3 -7 1 -16 -5 -20 -5 -3 -8
-19 -5 -35 2 -16 1 -29 -2 -29 -4 0 -7 -915 -7 -2033 0 -1792 2 -2036 15
-2052 14 -17 13 -18 -4 -12 -14 6 -16 4 -9 -5 6 -7 9 -21 8 -31 -2 -9 1 -15 6
-11 5 3 9 0 9 -6 0 -6 5 -8 11 -4 8 5 8 9 -1 14 -8 5 -7 9 6 14 21 8 31 -1 16
-16 -8 -8 -7 -15 4 -26 8 -8 13 -20 10 -28 -3 -7 -1 -14 4 -16 4 -2 10 -12 12
-23 1 -11 11 -29 20 -39 10 -10 15 -22 13 -26 -3 -4 4 -15 15 -25 11 -10 17
-22 14 -26 -3 -5 -1 -9 5 -9 18 0 66 -52 63 -67 -2 -8 1 -12 7 -9 5 3 16 0 24
-8 8 -8 17 -13 19 -10 3 2 11 -2 18 -11 7 -8 19 -15 26 -15 8 0 14 -5 14 -11
0 -5 5 -7 12 -3 6 4 8 3 4 -4 -3 -6 -2 -13 4 -17 5 -3 10 0 10 7 0 10 2 10 9
0 4 -8 11 -13 15 -13 20 3 25 -1 23 -19 -1 -11 -5 -20 -10 -20 -5 0 -6 7 -3
16 4 10 2 13 -7 7 -19 -12 -38 -12 -31 -1 5 7 2 8 -6 3 -9 -6 -11 -4 -5 5 6 9
4 11 -5 5 -9 -6 -11 -4 -5 5 6 9 4 11 -5 5 -9 -5 -11 -4 -6 3 4 7 2 13 -3 13
-12 2 -26 5 -38 9 -5 1 -12 2 -16 1 -5 -1 -5 4 -1 10 5 8 3 9 -6 4 -9 -6 -11
-4 -5 5 6 9 4 11 -5 5 -9 -6 -11 -4 -5 6 7 11 5 11 -10 -1 -15 -12 -17 -12
-10 -1 6 10 4 12 -5 6 -9 -6 -11 -4 -5 5 5 9 4 11 -3 6 -8 -5 -10 -1 -5 10 5
14 3 16 -11 11 -9 -4 -15 -3 -11 2 3 5 -4 16 -16 24 -11 8 -17 17 -12 19 4 3
2 3 -5 1 -8 -1 -10 2 -6 9 4 7 3 8 -4 4 -7 -4 -10 1 -7 14 2 11 -1 19 -8 17
-7 -1 -11 4 -9 11 1 8 -2 11 -9 6 -8 -5 -9 -3 -4 6 5 8 4 11 -3 6 -7 -4 -10 1
-7 13 2 14 -1 18 -11 14 -8 -3 -14 0 -14 7 0 6 4 9 8 6 5 -3 9 1 9 9 0 8 -4
15 -9 15 -5 0 -7 4 -4 9 8 12 -19 33 -29 23 -4 -4 -2 4 5 17 10 19 9 22 -1 16
-7 -5 -10 -4 -6 1 3 6 -4 11 -16 11 -20 2 -21 1 -4 -11 10 -8 15 -20 11 -30
-3 -9 -1 -16 4 -16 6 0 9 -9 7 -21 -3 -17 -2 -19 10 -9 12 10 14 7 10 -20 -2
-21 1 -33 11 -37 7 -3 12 -9 9 -13 -2 -4 6 -19 19 -33 13 -14 22 -28 20 -30
-8 -8 57 -57 68 -51 7 4 8 3 4 -5 -8 -13 53 -73 66 -65 4 3 8 -1 8 -8 0 -9 3
-9 10 2 8 13 10 12 10 -3 0 -11 6 -17 18 -15 10 2 16 -2 14 -10 -1 -8 2 -11 7
-8 5 4 12 2 15 -3 3 -4 20 -12 38 -16 39 -9 47 -12 51 -15 7 -8 4244 -5 4255
3 6 5 12 6 12 3 0 -4 10 -1 23 6 12 7 29 12 38 13 9 0 26 8 37 18 12 11 25 16
30 13 5 -3 25 10 45 29 19 18 39 30 43 27 4 -4 4 -2 0 5 -3 6 -2 14 4 18 5 3
10 0 10 -7 0 -7 6 -4 12 7 7 11 22 28 35 39 13 10 22 21 19 24 -3 3 3 12 15
20 17 12 18 16 7 30 -11 13 -10 15 5 9 11 -4 16 -3 12 3 -3 6 1 13 10 16 9 4
14 13 11 20 -3 8 0 14 7 14 8 0 6 4 -3 10 -13 9 -7 14 12 11 4 0 5 6 2 14 -4
8 -1 15 6 15 7 0 10 7 6 15 -3 8 -1 15 5 15 6 0 9 8 7 18 -1 9 1 23 5 29 4 7
3 21 -3 32 -14 26 -13 36 3 23 10 -8 12 400 11 2036 -1 1126 -2 2053 -3 2060
-2 17 -17 15 -19 -3 -1 -8 -3 -22 -4 -30 -1 -8 -6 -15 -12 -15 -5 0 -1 -7 10
-15 16 -13 16 -14 2 -9 -11 4 -18 1 -18 -6 0 -6 4 -9 9 -5 5 3 13 0 17 -6 4
-7 3 -10 -2 -6 -5 3 -9 -794 -9 -1981 1 -1358 -3 -1990 -10 -1995 -6 -5 -2 -6
10 -3 18 5 18 5 4 -7 -15 -11 -15 -15 -3 -32 8 -10 14 -24 14 -29 0 -6 -4 -5
-9 3 -6 9 -11 10 -15 2 -4 -6 -2 -11 5 -11 7 0 4 -7 -7 -15 -16 -13 -16 -14
-1 -9 9 3 17 1 17 -5 0 -6 -3 -10 -7 -10 -21 3 -24 -3 -12 -18 12 -14 12 -16
0 -8 -10 6 -12 4 -6 -5 5 -9 4 -11 -3 -6 -8 5 -10 1 -6 -11 4 -14 3 -15 -4 -4
-7 9 -12 10 -16 2 -4 -6 -3 -11 2 -11 5 0 9 -7 9 -15 0 -8 -5 -11 -11 -8 -6 4
-5 -1 3 -11 12 -15 12 -17 0 -14 -8 2 -13 -3 -11 -10 1 -8 -2 -11 -8 -7 -9 6
-14 -8 -11 -28 1 -5 -4 -5 -11 -1 -9 6 -9 3 1 -9 9 -11 10 -17 2 -17 -6 0 -11
5 -11 12 0 15 -11 4 -14 -14 -2 -16 -64 -78 -69 -69 -2 3 -2 0 0 -7 1 -8 -2
-10 -9 -6 -7 5 -8 3 -3 -6 6 -9 4 -11 -5 -5 -9 6 -11 4 -5 -5 6 -9 4 -11 -5
-5 -9 6 -11 4 -5 -5 6 -9 4 -11 -5 -5 -9 5 -11 4 -6 -4 4 -6 4 -11 -1 -10 -4
1 -15 1 -23 0 -12 -1 -13 -3 -1 -10 9 -6 10 -11 2 -15 -6 -4 -11 -3 -11 1 0 5
-9 9 -21 10 -14 1 -19 -3 -15 -12 3 -9 -1 -12 -15 -10 -11 2 -17 0 -15 -4 3
-4 -10 -7 -29 -6 -19 1 -32 -2 -29 -6 2 -5 -5 -6 -16 -4 -12 2 -18 0 -15 -6 4
-5 3 -9 -2 -8 -4 1 -10 0 -13 -1 -15 -8 -128 -4 -123 4 4 5 1 6 -5 2 -21 -13
-51 -15 -58 -5 -10 17 4 23 21 9 8 -7 15 -8 15 -4 0 5 33 9 73 9 39 -1 77 2
82 6 6 4 22 10 35 12 48 9 55 12 67 27 7 8 13 11 13 6 0 -5 7 -3 15 4 11 9 15
9 15 1 0 -7 5 -9 10 -6 6 4 8 10 5 15 -6 10 14 24 35 25 8 0 14 6 12 13 -1 8
2 11 8 7 5 -3 10 -3 10 2 0 4 21 31 47 58 26 28 47 54 48 58 0 4 7 12 15 17 8
5 11 10 6 10 -5 0 -1 9 8 19 10 11 15 24 12 30 -3 5 0 15 7 23 7 7 12 20 12
28 -1 8 2 20 6 25 4 6 8 13 8 18 1 4 2 8 2 10 6 12 3 4136 -3 4149 -5 10 -4
19 2 23 5 3 10 11 10 16 0 6 -5 7 -12 3 -7 -4 -8 -3 -4 4 4 7 1 12 -6 12 -10
0 -10 2 1 9 9 6 10 11 2 15 -6 4 -9 12 -6 17 4 5 1 9 -5 9 -7 0 -10 6 -7 13 2
6 -3 20 -11 30 -14 16 -14 19 -2 27 14 9 13 11 -9 14 -11 1 -26 15 -26 24 -1
10 -59 88 -67 90 -5 1 -9 5 -10 10 -3 13 -23 30 -30 26 -4 -3 -11 4 -17 13 -6
10 -11 14 -11 10 0 -4 -20 6 -45 23 -25 17 -45 28 -45 24 0 -3 -6 -1 -13 5 -8
6 -18 7 -22 3 -5 -4 -5 -1 0 7 6 10 2 12 -14 6 -11 -3 -21 -2 -21 2 0 10 -21
13 -145 16 -49 1 -96 6 -102 10 -7 5 -13 4 -13 0 0 -11 -211 -10 -227 0 -7 5
-13 4 -13 0 0 -11 -211 -10 -228 0 -6 5 -12 4 -12 0 0 -11 -211 -10 -227 0 -7
5 -13 4 -13 0 0 -11 -211 -10 -227 0 -7 5 -13 4 -13 0 0 -11 -211 -10 -227 0
-7 5 -13 4 -13 0 0 -11 -211 -10 -227 0 -7 5 -13 4 -13 0 0 -11 -211 -10 -227
0 -7 5 -13 4 -13 0 0 -11 -211 -10 -227 0 -7 5 -13 4 -13 0 0 -11 -211 -10
-227 0 -7 5 -13 4 -13 0 0 -11 -211 -10 -227 0 -7 5 -13 4 -13 0 0 -11 -211
-10 -227 0 -7 5 -13 4 -13 0 0 -11 -211 -10 -227 0 -7 5 -13 4 -13 0 0 -11
-211 -10 -227 0 -7 5 -13 4 -13 0 0 -11 -211 -10 -227 0 -7 5 -13 4 -13 0 0
-11 -211 -10 -227 0 -7 5 -13 4 -13 0 0 -11 -211 -10 -227 0 -7 5 -13 4 -13
-1 0 -5 -13 -9 -30 -9 -16 0 -30 5 -30 10 0 5 -6 4 -13 -2 -8 -6 -17 -8 -20
-4 -4 3 -7 2 -7 -4 0 -5 -12 -9 -27 -8 -16 1 -31 -3 -34 -8 -3 -5 -9 -1 -12 8
-5 10 -3 14 5 9 6 -4 8 -3 5 3 -4 6 3 10 16 9 12 0 21 4 20 10 -2 11 25 12 42
2 6 -3 18 -4 28 -3 9 2 15 0 13 -4 -3 -4 4 -7 14 -7 10 0 17 3 14 7 -2 4 3 13
12 20 14 11 19 9 34 -11 15 -20 20 -22 34 -11 9 7 16 10 16 6 0 -4 6 -2 13 4
8 6 17 9 21 6 3 -3 2 0 -4 7 -13 15 -50 21 -50 7 0 -6 -5 -7 -12 -2 -14 8
-116 12 -124 4z m59 -11 c-7 -7 -63 -7 -58 0 2 3 17 6 34 5 16 0 27 -2 24 -5z
m81 -3 c10 11 37 12 30 2 -3 -5 -9 -7 -14 -4 -5 3 -11 1 -15 -5 -9 -15 -22
-12 -29 6 -5 13 -4 14 7 6 8 -7 17 -9 21 -5z m-200 -5 c3 -5 -1 -9 -9 -9 -8 0
-12 4 -9 9 3 4 7 8 9 8 2 0 6 -4 9 -8z m-39 -12 c-3 -5 -12 -10 -18 -10 -7 0
-6 4 3 10 19 12 23 12 15 0z m-62 -25 c-3 -9 -8 -14 -10 -11 -3 3 -2 9 2 15 9
16 15 13 8 -4z m-23 -4 c0 -5 -7 -12 -16 -15 -14 -5 -15 -4 -4 9 14 17 20 19
20 6z m-140 -105 c0 -3 -15 -14 -32 -26 l-33 -22 30 26 c31 27 35 29 35 22z
m-66 -87 c-3 -5 -10 -7 -15 -3 -5 3 -7 10 -3 15 3 5 10 7 15 3 5 -3 7 -10 3
-15z m-34 -34 c-6 -8 -9 -18 -6 -23 3 -5 -1 -9 -9 -9 -8 0 -11 5 -8 11 10 19
25 36 30 36 3 0 0 -7 -7 -15z m-37 -90 c-3 -9 -8 -14 -10 -11 -3 3 -2 9 2 15
9 16 15 13 8 -4z m-10 -40 c-3 -9 -8 -14 -10 -11 -3 3 -2 9 2 15 9 16 15 13 8
-4z m-8 -84 c3 -5 2 -12 -3 -15 -5 -3 -9 1 -9 9 0 17 3 19 12 6z m5071 -45 c0
-14 -3 -23 -7 -20 -6 3 -6 22 0 42 3 10 7 -2 7 -22z m-5081 -1998 c0 -1089 -2
-1981 -5 -1983 -3 -2 -5 892 -5 1985 0 1094 2 1986 5 1983 3 -2 5 -896 5
-1985z m5080 -37 c0 -1089 -2 -1977 -5 -1974 -6 5 -8 3934 -3 3946 2 4 5 7 6
7 1 0 2 -891 2 -1979z m-5040 -2150 c3 -5 2 -12 -3 -15 -5 -3 -9 1 -9 9 0 17
3 19 12 6z m50 -121 c10 -11 14 -20 9 -20 -5 0 -15 9 -22 20 -7 11 -11 20 -9
20 2 0 12 -9 22 -20z m65 -77 c0 -7 -39 17 -46 28 -3 6 5 3 20 -6 14 -10 26
-19 26 -22z m4785 9 c-17 -15 -32 -26 -35 -24 -5 4 50 52 60 52 3 0 -9 -13
-25 -28z m-4714 -79 c13 -16 12 -17 -3 -4 -10 7 -18 15 -18 17 0 8 8 3 21 -13z
m202 -50 c35 -1 39 -3 34 -16 -7 -19 41 -16 53 3 7 10 10 11 10 3 0 -7 5 -13
11 -13 5 0 8 4 5 9 -7 11 13 9 32 -2 7 -5 12 -3 12 4 0 7 7 4 15 -7 11 -14 13
-14 9 -3 -4 14 2 16 33 15 21 -1 44 -5 51 -9 7 -5 12 -3 12 4 0 7 7 4 15 -7
11 -14 13 -14 9 -3 -4 14 2 16 33 15 21 -1 44 -5 51 -9 7 -5 12 -3 12 4 0 7 7
4 15 -7 11 -14 13 -14 9 -3 -4 14 2 16 33 15 21 -1 44 -5 51 -9 7 -5 12 -3 12
4 0 7 7 4 15 -7 11 -14 13 -14 9 -3 -4 14 2 16 33 15 21 -1 44 -5 51 -9 7 -5
12 -3 12 4 0 7 7 4 15 -7 11 -14 13 -14 9 -3 -4 14 2 16 33 15 21 -1 44 -5 51
-9 7 -5 12 -3 12 4 0 7 7 4 15 -7 11 -14 13 -14 9 -3 -4 14 2 16 33 15 21 -1
44 -5 51 -9 7 -5 12 -3 12 4 0 7 7 4 15 -7 11 -14 13 -14 9 -3 -4 14 2 16 33
15 21 -1 44 -5 51 -9 7 -5 12 -3 12 4 0 7 7 4 15 -7 11 -14 13 -14 9 -3 -4 14
2 16 33 15 21 -1 44 -5 51 -9 7 -5 12 -3 12 4 0 7 7 4 15 -7 11 -14 13 -14 9
-3 -4 14 2 16 33 15 21 -1 44 -5 51 -9 7 -5 12 -3 12 4 0 7 7 4 15 -7 11 -14
13 -14 9 -3 -4 14 2 16 33 15 21 -1 44 -5 51 -9 7 -5 12 -3 12 4 0 7 7 4 15
-7 11 -14 13 -14 9 -3 -4 14 2 16 33 15 21 -1 44 -5 51 -9 7 -5 12 -3 12 4 0
7 7 4 15 -7 11 -14 13 -14 9 -3 -4 14 2 16 33 15 21 -1 44 -5 51 -9 7 -5 12
-3 12 4 0 7 7 4 15 -7 11 -14 13 -14 9 -3 -4 14 2 16 33 15 21 -1 44 -5 51 -9
7 -5 12 -3 12 4 0 7 7 4 15 -7 11 -14 13 -14 9 -3 -4 14 2 16 33 15 21 -1 44
-5 51 -9 7 -5 12 -3 12 4 0 7 7 4 15 -7 11 -14 13 -14 9 -3 -4 14 2 16 33 15
21 -1 44 -5 51 -9 7 -5 12 -3 12 4 0 7 7 4 15 -7 11 -14 13 -14 9 -3 -4 14 2
16 33 15 21 -1 44 -5 51 -9 7 -5 12 -3 12 4 0 7 7 4 15 -7 11 -14 13 -14 9 -3
-4 14 2 16 33 15 21 -1 44 -5 51 -9 7 -5 12 -3 12 4 0 7 7 4 15 -7 11 -14 13
-14 9 -3 -4 14 2 16 33 15 21 -1 44 -5 51 -9 7 -5 12 -3 12 4 0 7 7 4 15 -7
11 -14 13 -14 9 -3 -4 14 2 16 33 15 21 -1 44 -5 51 -9 7 -5 12 -3 12 4 0 7 7
4 15 -7 11 -14 13 -14 9 -3 -4 14 2 16 33 15 21 -1 44 -5 51 -9 7 -5 12 -3 12
4 0 7 7 4 15 -7 11 -14 13 -14 9 -3 -4 14 2 16 33 15 21 -1 44 -5 51 -9 7 -5
12 -3 12 4 0 7 7 4 15 -7 11 -14 13 -14 9 -3 -4 14 2 16 33 15 21 -1 44 -5 51
-9 7 -5 12 -3 12 4 0 7 7 4 15 -7 11 -14 13 -14 9 -3 -4 14 2 16 33 15 21 -1
44 -5 51 -9 7 -5 12 -3 12 4 0 7 7 4 15 -7 11 -14 13 -14 9 -3 -4 14 2 16 33
15 21 -1 44 -5 51 -9 7 -5 12 -3 12 4 0 7 7 4 15 -7 11 -14 13 -14 9 -3 -4 14
2 16 33 15 21 -1 44 -5 51 -9 7 -5 12 -3 12 4 0 7 7 4 15 -7 11 -14 13 -14 9
-3 -4 14 2 16 33 15 21 -1 44 -5 51 -9 7 -5 12 -3 12 4 0 7 7 4 15 -7 11 -14
13 -14 9 -3 -4 14 2 16 33 15 21 -1 44 -5 51 -9 7 -5 12 -3 12 4 0 7 7 4 15
-7 11 -14 13 -14 9 -3 -4 14 2 16 33 15 21 -1 44 -5 51 -9 7 -5 12 -3 12 4 0
7 7 4 15 -7 11 -14 13 -14 9 -3 -4 14 2 16 33 15 21 -1 44 -5 51 -9 7 -5 12
-3 12 4 0 7 7 4 15 -7 11 -14 13 -14 9 -3 -4 14 2 16 33 15 21 -1 44 -5 51 -9
7 -5 12 -3 12 4 0 7 7 4 15 -7 11 -14 13 -14 9 -3 -4 14 2 16 33 15 21 -1 44
-5 51 -9 7 -5 12 -3 12 4 0 7 7 4 15 -7 11 -14 13 -14 9 -3 -4 14 2 16 33 15
21 -1 43 -5 50 -9 6 -4 13 -3 15 3 2 6 8 2 14 -7 11 -17 -82 -18 -2010 -17
-1112 1 -2023 3 -2026 4 -3 1 -8 2 -12 1 -3 0 -5 7 -3 17 2 9 4 22 4 27 1 6 4
6 9 0 4 -6 15 -11 25 -12z m77 -11 c0 -5 -7 -9 -15 -9 -8 0 -15 4 -15 9 0 4 7
8 15 8 8 0 15 -4 15 -8z m4203 -3 c-6 -6 -19 -12 -29 -14 -11 -2 -19 -4 -19
-5 0 -1 -8 -3 -18 -5 -11 -2 -16 0 -12 3 4 4 11 8 16 8 5 1 10 2 12 4 1 1 10
3 20 5 11 2 21 6 25 9 3 3 8 6 11 6 3 0 0 -5 -6 -11z"/>
<path d="M430 34 c12 -13 41 -13 40 1 0 5 -11 10 -25 11 -19 1 -22 -2 -15 -12z"/>
<path d="M576 32 c-3 -5 1 -9 9 -9 8 0 12 4 9 9 -3 4 -7 8 -9 8 -2 0 -6 -4 -9
-8z"/>
<path d="M646 31 c3 -3 21 -6 39 -6 19 -1 32 1 29 4 -3 3 -21 6 -39 6 -19 1
-32 -1 -29 -4z"/>
<path d="M766 31 c3 -3 21 -6 39 -6 19 -1 32 1 29 4 -3 3 -21 6 -39 6 -19 1
-32 -1 -29 -4z"/>
<path d="M886 31 c3 -3 21 -6 39 -6 19 -1 32 1 29 4 -3 3 -21 6 -39 6 -19 1
-32 -1 -29 -4z"/>
<path d="M1006 31 c3 -3 21 -6 39 -6 19 -1 32 1 29 4 -3 3 -21 6 -39 6 -19 1
-32 -1 -29 -4z"/>
<path d="M1126 31 c3 -3 21 -6 39 -6 19 -1 32 1 29 4 -3 3 -21 6 -39 6 -19 1
-32 -1 -29 -4z"/>
<path d="M1246 31 c3 -3 21 -6 39 -6 19 -1 32 1 29 4 -3 3 -21 6 -39 6 -19 1
-32 -1 -29 -4z"/>
<path d="M1366 31 c3 -3 21 -6 39 -6 19 -1 32 1 29 4 -3 3 -21 6 -39 6 -19 1
-32 -1 -29 -4z"/>
<path d="M1486 31 c3 -3 21 -6 39 -6 19 -1 32 1 29 4 -3 3 -21 6 -39 6 -19 1
-32 -1 -29 -4z"/>
<path d="M1606 31 c3 -3 21 -6 39 -6 19 -1 32 1 29 4 -3 3 -21 6 -39 6 -19 1
-32 -1 -29 -4z"/>
<path d="M1726 31 c3 -3 21 -6 39 -6 19 -1 32 1 29 4 -3 3 -21 6 -39 6 -19 1
-32 -1 -29 -4z"/>
<path d="M1846 31 c3 -3 21 -6 39 -6 19 -1 32 1 29 4 -3 3 -21 6 -39 6 -19 1
-32 -1 -29 -4z"/>
<path d="M1966 31 c3 -3 21 -6 39 -6 19 -1 32 1 29 4 -3 3 -21 6 -39 6 -19 1
-32 -1 -29 -4z"/>
<path d="M2086 31 c3 -3 21 -6 39 -6 19 -1 32 1 29 4 -3 3 -21 6 -39 6 -19 1
-32 -1 -29 -4z"/>
<path d="M2206 31 c3 -3 21 -6 39 -6 19 -1 32 1 29 4 -3 3 -21 6 -39 6 -19 1
-32 -1 -29 -4z"/>
<path d="M2326 31 c3 -3 21 -6 39 -6 19 -1 32 1 29 4 -3 3 -21 6 -39 6 -19 1
-32 -1 -29 -4z"/>
<path d="M2446 31 c3 -3 21 -6 39 -6 19 -1 32 1 29 4 -3 3 -21 6 -39 6 -19 1
-32 -1 -29 -4z"/>
<path d="M2566 31 c3 -3 21 -6 39 -6 19 -1 32 1 29 4 -3 3 -21 6 -39 6 -19 1
-32 -1 -29 -4z"/>
<path d="M2686 31 c3 -3 21 -6 39 -6 19 -1 32 1 29 4 -3 3 -21 6 -39 6 -19 1
-32 -1 -29 -4z"/>
<path d="M2806 31 c3 -3 21 -6 39 -6 19 -1 32 1 29 4 -3 3 -21 6 -39 6 -19 1
-32 -1 -29 -4z"/>
<path d="M2926 31 c3 -3 21 -6 39 -6 19 -1 32 1 29 4 -3 3 -21 6 -39 6 -19 1
-32 -1 -29 -4z"/>
<path d="M3046 31 c3 -3 21 -6 39 -6 19 -1 32 1 29 4 -3 3 -21 6 -39 6 -19 1
-32 -1 -29 -4z"/>
<path d="M3166 31 c3 -3 21 -6 39 -6 19 -1 32 1 29 4 -3 3 -21 6 -39 6 -19 1
-32 -1 -29 -4z"/>
<path d="M3286 31 c3 -3 21 -6 39 -6 19 -1 32 1 29 4 -3 3 -21 6 -39 6 -19 1
-32 -1 -29 -4z"/>
<path d="M3406 31 c3 -3 21 -6 39 -6 19 -1 32 1 29 4 -3 3 -21 6 -39 6 -19 1
-32 -1 -29 -4z"/>
<path d="M3526 31 c3 -3 21 -6 39 -6 19 -1 32 1 29 4 -3 3 -21 6 -39 6 -19 1
-32 -1 -29 -4z"/>
<path d="M3646 31 c3 -3 21 -6 39 -6 19 -1 32 1 29 4 -3 3 -21 6 -39 6 -19 1
-32 -1 -29 -4z"/>
<path d="M3766 31 c3 -3 21 -6 39 -6 19 -1 32 1 29 4 -3 3 -21 6 -39 6 -19 1
-32 -1 -29 -4z"/>
<path d="M3886 31 c3 -3 21 -6 39 -6 19 -1 32 1 29 4 -3 3 -21 6 -39 6 -19 1
-32 -1 -29 -4z"/>
<path d="M4006 31 c3 -3 21 -6 39 -6 19 -1 32 1 29 4 -3 3 -21 6 -39 6 -19 1
-32 -1 -29 -4z"/>
<path d="M4126 31 c3 -3 21 -6 39 -6 19 -1 32 1 29 4 -3 3 -21 6 -39 6 -19 1
-32 -1 -29 -4z"/>
<path d="M4246 31 c3 -3 21 -6 39 -6 19 -1 32 1 29 4 -3 3 -21 6 -39 6 -19 1
-32 -1 -29 -4z"/>
<path d="M4366 31 c3 -3 21 -6 39 -6 19 -1 32 1 29 4 -3 3 -21 6 -39 6 -19 1
-32 -1 -29 -4z"/>
<path d="M712 5093 c2 -10 -2 -18 -9 -18 -6 0 -14 -2 -17 -5 -8 -8 127 -5 141
3 6 4 14 4 17 -1 6 -10 207 -9 223 1 6 4 14 4 17 -1 6 -10 207 -9 223 1 6 4
14 4 17 -1 6 -10 207 -9 223 1 6 4 14 4 17 -1 6 -10 207 -9 223 1 6 4 14 4 17
-1 6 -10 207 -9 223 1 6 4 14 4 17 -1 6 -10 207 -9 223 1 6 4 14 4 17 -1 6
-10 207 -9 223 1 6 4 14 4 17 -1 6 -10 207 -9 223 1 6 4 14 4 17 -1 6 -10 207
-9 223 1 6 4 14 4 17 -1 6 -10 207 -9 223 1 6 4 14 4 17 -1 6 -10 207 -9 223
1 6 4 14 4 17 -1 6 -10 207 -9 223 1 6 4 14 4 17 -1 6 -10 207 -9 223 1 6 4
14 4 17 -1 6 -10 207 -9 223 1 6 4 14 4 17 -1 6 -10 206 -9 222 1 6 3 14 3 18
-1 4 -4 49 -8 99 -9 105 -2 143 -6 152 -15 4 -4 13 -4 19 -2 7 3 19 -2 26 -10
7 -9 16 -14 20 -11 5 3 11 1 15 -4 3 -6 13 -7 22 -4 11 4 14 2 9 -5 -6 -11 31
-38 47 -34 4 1 10 -5 13 -13 6 -14 8 -13 20 2 11 14 13 14 9 2 -3 -9 1 -22 9
-29 9 -7 13 -16 10 -21 -3 -5 -2 -8 3 -7 4 2 18 -7 31 -20 12 -12 19 -22 15
-22 -3 0 3 -10 15 -22 11 -13 22 -27 24 -33 2 -5 6 -9 10 -8 3 1 11 -4 18 -11
8 -11 8 -16 0 -21 -8 -5 -6 -13 6 -26 9 -10 14 -19 9 -19 -4 0 -2 -7 5 -15 7
-8 9 -15 5 -15 -4 0 -2 -7 5 -15 7 -8 9 -15 5 -15 -4 0 -2 -7 5 -15 10 -11 10
-19 2 -27 -12 -12 -5 -38 10 -38 5 0 6 5 3 10 -3 6 1 13 9 16 15 6 19 54 5 54
-3 0 -6 6 -7 13 -2 22 -7 42 -15 55 -5 6 -5 12 -1 12 3 0 0 7 -7 16 -7 9 -14
23 -15 32 -2 8 -8 18 -14 22 -7 4 -10 10 -8 13 1 4 -6 17 -17 29 -11 13 -19
26 -18 29 4 13 -147 143 -167 144 -3 1 -16 7 -30 15 -14 8 -32 15 -40 15 -8 0
-25 6 -37 13 -13 7 -23 10 -23 6 0 -3 -6 -2 -12 3 -7 6 -22 9 -32 7 -11 -1
-24 0 -30 3 -17 11 -76 12 -76 1 0 -5 -6 -6 -12 -1 -21 12 -48 14 -48 2 0 -6
-5 -7 -12 -2 -18 11 -108 12 -108 1 0 -5 -6 -6 -12 -1 -7 4 -21 9 -32 10 -13
2 -17 -1 -12 -13 6 -15 4 -15 -10 -3 -20 17 -54 22 -54 8 0 -6 -5 -7 -12 -2
-18 11 -108 12 -108 1 0 -5 -6 -6 -12 -1 -7 4 -21 9 -32 10 -13 2 -17 -1 -12
-13 6 -15 4 -15 -10 -3 -20 17 -54 22 -54 8 0 -6 -5 -7 -12 -2 -18 11 -108 12
-108 1 0 -5 -6 -6 -12 -1 -7 4 -21 9 -32 10 -13 2 -17 -1 -12 -13 6 -15 4 -15
-10 -3 -20 17 -54 22 -54 8 0 -6 -5 -7 -12 -2 -18 11 -108 12 -108 1 0 -5 -6
-6 -12 -1 -7 4 -21 9 -32 10 -13 2 -17 -1 -12 -13 6 -15 4 -15 -10 -3 -20 17
-54 22 -54 8 0 -6 -5 -7 -12 -2 -18 11 -108 12 -108 1 0 -5 -6 -6 -12 -1 -7 4
-21 9 -32 10 -13 2 -17 -1 -12 -13 6 -15 4 -15 -10 -3 -20 17 -54 22 -54 8 0
-6 -5 -7 -12 -2 -18 11 -108 12 -108 1 0 -5 -6 -6 -12 -1 -7 4 -21 9 -32 10
-13 2 -17 -1 -12 -13 6 -15 4 -15 -10 -3 -20 17 -54 22 -54 8 0 -6 -5 -7 -12
-2 -18 11 -108 12 -108 1 0 -5 -6 -6 -12 -1 -7 4 -21 9 -32 10 -13 2 -17 -1
-12 -13 6 -15 4 -15 -10 -3 -20 17 -54 22 -54 8 0 -6 -5 -7 -12 -2 -18 11
-108 12 -108 1 0 -5 -6 -6 -12 -1 -7 4 -21 9 -32 10 -13 2 -17 -1 -12 -13 6
-15 4 -15 -10 -3 -20 17 -54 22 -54 8 0 -6 -5 -7 -12 -2 -18 11 -108 12 -108
1 0 -5 -6 -6 -12 -1 -7 4 -21 9 -32 10 -13 2 -17 -1 -12 -13 6 -15 4 -15 -10
-3 -20 17 -54 22 -54 8 0 -6 -5 -7 -12 -2 -18 11 -108 12 -108 1 0 -5 -6 -6
-12 -1 -7 4 -21 9 -32 10 -13 2 -17 -1 -12 -13 6 -15 4 -15 -10 -3 -20 17 -54
22 -54 8 0 -6 -5 -7 -12 -2 -18 11 -108 12 -108 1 0 -5 -6 -6 -12 -1 -7 4 -21
9 -32 10 -13 2 -17 -1 -12 -13 6 -15 4 -15 -10 -3 -20 17 -54 22 -54 8 0 -6
-5 -7 -12 -2 -18 11 -108 12 -108 1 0 -5 -6 -6 -12 -1 -7 4 -21 9 -32 10 -13
2 -17 -1 -12 -13 6 -15 4 -15 -10 -3 -20 17 -54 22 -54 8 0 -6 -5 -7 -12 -2
-18 11 -108 12 -108 1 0 -5 -6 -6 -12 -1 -7 4 -21 9 -32 10 -13 2 -17 -1 -12
-13 6 -15 4 -15 -10 -3 -20 17 -54 22 -54 8 0 -6 -5 -7 -12 -2 -18 11 -108 12
-108 1 0 -5 -6 -6 -12 -1 -7 4 -21 9 -32 10 -13 2 -17 -1 -12 -13 6 -15 4 -15
-10 -3 -20 17 -54 22 -54 8 0 -6 -5 -7 -12 -2 -18 11 -108 12 -108 1 0 -5 -6
-6 -12 -1 -7 4 -21 9 -32 10 -13 2 -17 -1 -12 -13 6 -15 4 -15 -10 -3 -20 17
-54 22 -54 8 0 -6 -5 -7 -12 -2 -18 11 -108 12 -108 1 0 -5 -6 -6 -12 -1 -26
16 -49 14 -46 -4z m44 -6 c4 -3 12 -3 18 0 16 10 96 11 102 1 3 -4 11 -5 17
-1 20 12 36 12 46 -1 7 -9 0 -12 -27 -12 -20 0 -40 5 -44 10 -5 7 -8 5 -8 -4
0 -12 -2 -13 -9 -1 -5 8 -14 10 -22 6 -21 -13 -79 -14 -79 -1 0 7 -3 6 -9 -2
-7 -11 -9 -11 -14 1 -6 15 15 18 29 4z m240 0 c4 -3 12 -3 18 0 16 10 96 11
102 1 3 -4 11 -5 17 -1 20 12 36 12 46 -1 7 -9 0 -12 -27 -12 -20 0 -40 5 -44
10 -5 7 -8 5 -8 -4 0 -12 -2 -13 -9 -1 -5 8 -14 10 -22 6 -21 -13 -79 -14 -79
-1 0 7 -3 6 -9 -2 -7 -11 -9 -11 -14 1 -6 15 15 18 29 4z m240 0 c4 -3 12 -3
18 0 16 10 96 11 102 1 3 -4 11 -5 17 -1 20 12 36 12 46 -1 7 -9 0 -12 -27
-12 -20 0 -40 5 -44 10 -5 7 -8 5 -8 -4 0 -12 -2 -13 -9 -1 -5 8 -14 10 -22 6
-21 -13 -79 -14 -79 -1 0 7 -3 6 -9 -2 -7 -11 -9 -11 -14 1 -6 15 15 18 29 4z
m240 0 c4 -3 12 -3 18 0 16 10 96 11 102 1 3 -4 11 -5 17 -1 20 12 36 12 46
-1 7 -9 0 -12 -27 -12 -20 0 -40 5 -44 10 -5 7 -8 5 -8 -4 0 -12 -2 -13 -9 -1
-5 8 -14 10 -22 6 -21 -13 -79 -14 -79 -1 0 7 -3 6 -9 -2 -7 -11 -9 -11 -14 1
-6 15 15 18 29 4z m240 0 c4 -3 12 -3 18 0 16 10 96 11 102 1 3 -4 11 -5 17
-1 20 12 36 12 46 -1 7 -9 0 -12 -27 -12 -20 0 -40 5 -44 10 -5 7 -8 5 -8 -4
0 -12 -2 -13 -9 -1 -5 8 -14 10 -22 6 -21 -13 -79 -14 -79 -1 0 7 -3 6 -9 -2
-7 -11 -9 -11 -14 1 -6 15 15 18 29 4z m240 0 c4 -3 12 -3 18 0 16 10 96 11
102 1 3 -4 11 -5 17 -1 20 12 36 12 46 -1 7 -9 0 -12 -27 -12 -20 0 -40 5 -44
10 -5 7 -8 5 -8 -4 0 -12 -2 -13 -9 -1 -5 8 -14 10 -22 6 -21 -13 -79 -14 -79
-1 0 7 -3 6 -9 -2 -7 -11 -9 -11 -14 1 -6 15 15 18 29 4z m240 0 c4 -3 12 -3
18 0 16 10 96 11 102 1 3 -4 11 -5 17 -1 20 12 36 12 46 -1 7 -9 0 -12 -27
-12 -20 0 -40 5 -44 10 -5 7 -8 5 -8 -4 0 -12 -2 -13 -9 -1 -5 8 -14 10 -22 6
-21 -13 -79 -14 -79 -1 0 7 -3 6 -9 -2 -7 -11 -9 -11 -14 1 -6 15 15 18 29 4z
m240 0 c4 -3 12 -3 18 0 16 10 96 11 102 1 3 -4 11 -5 17 -1 20 12 36 12 46
-1 7 -9 0 -12 -27 -12 -20 0 -40 5 -44 10 -5 7 -8 5 -8 -4 0 -12 -2 -13 -9 -1
-5 8 -14 10 -22 6 -21 -13 -79 -14 -79 -1 0 7 -3 6 -9 -2 -7 -11 -9 -11 -14 1
-6 15 15 18 29 4z m240 0 c4 -3 12 -3 18 0 16 10 96 11 102 1 3 -4 11 -5 17
-1 20 12 36 12 46 -1 7 -9 0 -12 -27 -12 -20 0 -40 5 -44 10 -5 7 -8 5 -8 -4
0 -12 -2 -13 -9 -1 -5 8 -14 10 -22 6 -21 -13 -79 -14 -79 -1 0 7 -3 6 -9 -2
-7 -11 -9 -11 -14 1 -6 15 15 18 29 4z m240 0 c4 -3 12 -3 18 0 16 10 96 11
102 1 3 -4 11 -5 17 -1 20 12 36 12 46 -1 7 -9 0 -12 -27 -12 -20 0 -40 5 -44
10 -5 7 -8 5 -8 -4 0 -12 -2 -13 -9 -1 -5 8 -14 10 -22 6 -21 -13 -79 -14 -79
-1 0 7 -3 6 -9 -2 -7 -11 -9 -11 -14 1 -6 15 15 18 29 4z m240 0 c4 -3 12 -3
18 0 16 10 96 11 102 1 3 -4 11 -5 17 -1 20 12 36 12 46 -1 7 -9 0 -12 -27
-12 -20 0 -40 5 -44 10 -5 7 -8 5 -8 -4 0 -12 -2 -13 -9 -1 -5 8 -14 10 -22 6
-21 -13 -79 -14 -79 -1 0 7 -3 6 -9 -2 -7 -11 -9 -11 -14 1 -6 15 15 18 29 4z
m240 0 c4 -3 12 -3 18 0 16 10 96 11 102 1 3 -4 11 -5 17 -1 20 12 36 12 46
-1 7 -9 0 -12 -27 -12 -20 0 -40 5 -44 10 -5 7 -8 5 -8 -4 0 -12 -2 -13 -9 -1
-5 8 -14 10 -22 6 -21 -13 -79 -14 -79 -1 0 7 -3 6 -9 -2 -7 -11 -9 -11 -14 1
-6 15 15 18 29 4z m240 0 c4 -3 12 -3 18 0 16 10 96 11 102 1 3 -4 11 -5 17
-1 20 12 36 12 46 -1 7 -9 0 -12 -27 -12 -20 0 -40 5 -44 10 -5 7 -8 5 -8 -4
0 -12 -2 -13 -9 -1 -5 8 -14 10 -22 6 -21 -13 -79 -14 -79 -1 0 7 -3 6 -9 -2
-7 -11 -9 -11 -14 1 -6 15 15 18 29 4z m240 0 c4 -3 12 -3 18 0 16 10 96 11
102 1 3 -4 11 -5 17 -1 20 12 36 12 46 -1 7 -9 0 -12 -27 -12 -20 0 -40 5 -44
10 -5 7 -8 5 -8 -4 0 -12 -2 -13 -9 -1 -5 8 -14 10 -22 6 -21 -13 -79 -14 -79
-1 0 7 -3 6 -9 -2 -7 -11 -9 -11 -14 1 -6 15 15 18 29 4z m240 0 c4 -3 12 -3
18 0 16 10 96 11 102 1 3 -4 11 -5 17 -1 20 12 36 12 46 -1 7 -9 0 -12 -27
-12 -20 0 -40 5 -44 10 -5 7 -8 5 -8 -4 0 -12 -2 -13 -9 -1 -5 8 -14 10 -22 6
-21 -13 -79 -14 -79 -1 0 7 -3 6 -9 -2 -7 -11 -9 -11 -14 1 -6 15 15 18 29 4z
m240 0 c6 -3 14 -3 18 0 10 10 96 11 102 1 3 -4 11 -5 17 -1 17 11 30 11 44 1
6 -5 14 -5 17 0 6 10 56 9 72 0 6 -4 19 -5 30 -4 10 2 25 -1 32 -7 6 -5 12 -6
12 -3 0 4 10 1 23 -6 12 -7 29 -13 37 -13 8 0 26 -7 40 -15 14 -8 29 -14 33
-15 5 0 15 -9 23 -19 8 -11 14 -16 14 -12 0 4 5 4 10 1 6 -4 8 -11 4 -16 -4
-6 -10 -6 -18 0 -7 6 -16 8 -19 4 -4 -3 -9 2 -13 11 -3 9 -10 13 -15 10 -5 -3
-8 0 -7 8 2 7 -4 14 -12 14 -8 1 -18 2 -22 3 -5 0 -10 0 -12 -1 -2 -2 -13 5
-24 15 -11 10 -23 17 -28 16 -5 -1 -11 0 -14 1 -14 6 -74 11 -145 13 -44 0
-83 6 -87 12 -5 6 -8 4 -8 -5 0 -12 -2 -13 -9 -1 -5 8 -14 10 -22 6 -21 -13
-79 -14 -79 -1 0 7 -3 6 -9 -2 -7 -11 -9 -11 -14 1 -6 15 9 17 29 4z m563
-132 c4 2 23 -11 41 -30 19 -19 30 -35 25 -35 -5 0 4 -13 20 -30 16 -16 25
-30 20 -30 -4 0 0 -10 11 -22 19 -23 19 -23 -2 -5 -11 9 -24 15 -27 12 -4 -3
-5 -2 -2 2 3 3 -5 17 -17 30 -12 13 -18 23 -14 23 5 0 -10 19 -33 42 -22 24
-41 47 -40 53 0 5 3 4 6 -3 2 -6 8 -10 12 -7z m146 -205 c-3 -5 -1 -11 4 -14
5 -4 8 -14 7 -24 -2 -9 2 -21 8 -25 7 -6 7 -7 -2 -5 -8 2 -12 6 -10 9 2 3 -3
13 -11 22 -7 10 -10 17 -6 17 5 0 1 8 -8 18 -10 10 -14 22 -10 25 8 9 34 -13
28 -23z m29 -97 c4 -10 0 -23 -11 -32 -16 -15 -16 -15 -4 2 11 14 11 20 1 32
-7 9 -8 15 -2 15 5 0 13 -8 16 -17z"/>
<path d="M4836 5007 c3 -10 9 -15 12 -12 3 3 0 11 -7 18 -10 9 -11 8 -5 -6z"/>
<path d="M4920 4947 c0 -2 15 -16 33 -33 l32 -29 -29 33 c-28 30 -36 37 -36
29z"/>
<path d="M4995 4850 c10 -11 20 -20 23 -20 3 0 -3 9 -13 20 -10 11 -20 20 -23
20 -3 0 3 -9 13 -20z"/>
<path d="M584 5078 c-4 -7 -4 -10 1 -6 4 4 14 3 22 -4 11 -8 12 -7 7 6 -7 19
-20 21 -30 4z"/>
<path d="M474 5064 c-18 -15 -18 -15 2 -5 12 6 25 7 29 3 5 -4 5 -1 1 6 -9 15
-8 15 -32 -4z"/>
<path d="M171 4900 c-13 -11 -19 -20 -14 -20 6 0 18 9 28 20 23 25 17 25 -14
0z"/>
<path d="M37 4573 c-10 -9 -9 -23 1 -23 5 0 9 7 9 15 0 17 -1 18 -10 8z"/>
<path d="M4935 202 l-30 -37 31 25 c17 14 31 31 31 38 0 15 3 18 -32 -26z"/>
<path d="M174 201 c7 -11 46 -35 46 -28 0 3 -12 12 -26 22 -15 9 -23 12 -20 6z"/>
<path d="M270 126 c0 -2 8 -10 18 -17 15 -13 16 -12 3 4 -13 16 -21 21 -21 13z"/>
<path d="M4835 120 c-3 -5 -1 -10 4 -10 6 0 11 5 11 10 0 6 -2 10 -4 10 -3 0
-8 -4 -11 -10z"/>
<path d="M366 58 c3 -5 10 -6 15 -3 13 9 11 12 -6 12 -8 0 -12 -4 -9 -9z"/>
</g>
</svg>
